<svg width="25" height="23" viewBox="0 0 25 23" fill="none" xmlns="http://www.w3.org/2000/svg">
<g id="&#240;&#159;&#166;&#134; icon &#34;Briefcase&#34;">
<path id="Vector" d="M15.625 15.4062C15.625 15.8379 15.2754 16.1875 14.8438 16.1875H10.1562C9.72461 16.1875 9.375 15.8379 9.375 15.4062V13.0625H0V20.0938C0 21.3438 1.09375 22.4375 2.34375 22.4375H22.6562C23.9062 22.4375 25 21.3438 25 20.0938V13.0625H15.625V15.4062ZM22.6562 5.25H18.75V2.90625C18.75 1.65625 17.6562 0.5625 16.4062 0.5625H8.59375C7.34375 0.5625 6.25 1.65625 6.25 2.90625V5.25H2.34375C1.09375 5.25 0 6.34375 0 7.59375V11.5H25V7.59375C25 6.34375 23.9062 5.25 22.6562 5.25ZM15.625 5.25H9.375V3.6875H15.625V5.25Z" fill="#0D69C5" fill-opacity="0.6"/>
</g>
</svg>
