<svg width="75" height="75" viewBox="0 0 75 75" fill="none" xmlns="http://www.w3.org/2000/svg">
<g id="Frame 34">
<g id="&#240;&#159;&#166;&#134; icon &#34;cog&#34;">
<path id="Vector" d="M61.3614 43.3913L56.8755 40.8008C57.3283 38.3578 57.3283 35.8516 56.8755 33.4085L61.3614 30.8181C61.8773 30.5233 62.109 29.9125 61.9405 29.3439C60.7717 25.5951 58.7814 22.2043 56.1805 19.3822C55.7803 18.9505 55.1274 18.8452 54.622 19.14L50.1361 21.7305C48.2512 20.1088 46.0819 18.8557 43.7337 18.0343V12.864C43.7337 12.2743 43.323 11.7583 42.7438 11.6319C38.8792 10.7684 34.9198 10.8106 31.2447 11.6319C30.6656 11.7583 30.2549 12.2743 30.2549 12.864V18.0449C27.9172 18.8768 25.7479 20.1299 23.8525 21.741L19.3771 19.1505C18.8611 18.8557 18.2188 18.9505 17.8186 19.3927C15.2176 22.2043 13.2274 25.5951 12.0586 29.3544C11.8795 29.923 12.1217 30.5338 12.6377 30.8286L17.1236 33.4191C16.6708 35.8621 16.6708 38.3683 17.1236 40.8113L12.6377 43.4018C12.1217 43.6966 11.8901 44.3074 12.0586 44.876C13.2274 48.6248 15.2176 52.0156 17.8186 54.8377C18.2188 55.2694 18.8717 55.3747 19.3771 55.0799L23.863 52.4894C25.7479 54.1111 27.9172 55.3642 30.2654 56.1856V61.3665C30.2654 61.9562 30.6761 62.4721 31.2553 62.5985C35.1199 63.462 39.0793 63.4199 42.7543 62.5985C43.3335 62.4721 43.7442 61.9562 43.7442 61.3665V56.1856C46.0819 55.3537 48.2512 54.1006 50.1466 52.4894L54.6325 55.0799C55.1485 55.3747 55.7908 55.28 56.191 54.8377C58.792 52.0261 60.7822 48.6353 61.9511 44.876C62.109 44.2969 61.8773 43.6861 61.3614 43.3913ZM36.9943 45.5289C32.3504 45.5289 28.5701 41.7485 28.5701 37.1047C28.5701 32.4608 32.3504 28.6805 36.9943 28.6805C41.6381 28.6805 45.4185 32.4608 45.4185 37.1047C45.4185 41.7485 41.6381 45.5289 36.9943 45.5289Z" fill="#0D69C5"/>
</g>
</g>
</svg>
