<svg width="75" height="75" viewBox="0 0 75 75" fill="none" xmlns="http://www.w3.org/2000/svg">
<g id="Frame 33">
<g id="&#240;&#159;&#166;&#134; icon &#34;User Circle&#34;">
<path id="Vector" d="M37 12C23.1895 12 12 23.1895 12 37C12 50.8105 23.1895 62 37 62C50.8105 62 62 50.8105 62 37C62 23.1895 50.8105 12 37 12ZM37 21.6774C41.8992 21.6774 45.871 25.6492 45.871 30.5484C45.871 35.4476 41.8992 39.4194 37 39.4194C32.1008 39.4194 28.129 35.4476 28.129 30.5484C28.129 25.6492 32.1008 21.6774 37 21.6774ZM37 56.3548C31.0827 56.3548 25.7802 53.6734 22.2319 49.4798C24.127 45.9113 27.8367 43.4516 32.1613 43.4516C32.4032 43.4516 32.6452 43.4919 32.877 43.5625C34.1875 43.9859 35.5585 44.2581 37 44.2581C38.4415 44.2581 39.8226 43.9859 41.123 43.5625C41.3548 43.4919 41.5968 43.4516 41.8387 43.4516C46.1633 43.4516 49.873 45.9113 51.7681 49.4798C48.2198 53.6734 42.9173 56.3548 37 56.3548Z" fill="#0D69C5"/>
</g>
</g>
</svg>
