<svg width="36" height="35" viewBox="0 0 36 35" fill="none" xmlns="http://www.w3.org/2000/svg">
<g id="&#240;&#159;&#166;&#134; icon &#34;Search&#34;">
<path id="Vector" d="M35.024 30.262L28.2081 23.4461C27.9004 23.1384 27.4834 22.9675 27.0459 22.9675H25.9315C27.8184 20.5542 28.9396 17.5189 28.9396 14.2169C28.9396 6.36179 22.5749 -0.00292969 14.7198 -0.00292969C6.86472 -0.00292969 0.5 6.36179 0.5 14.2169C0.5 22.0719 6.86472 28.4366 14.7198 28.4366C18.0218 28.4366 21.0572 27.3155 23.4704 25.4286V26.543C23.4704 26.9805 23.6413 27.3975 23.949 27.7052L30.7649 34.5211C31.4075 35.1637 32.4467 35.1637 33.0825 34.5211L35.0172 32.5864C35.6598 31.9437 35.6598 30.9046 35.024 30.262ZM14.7198 22.9675C9.88643 22.9675 5.96915 19.0571 5.96915 14.2169C5.96915 9.3835 9.87959 5.46622 14.7198 5.46622C19.5532 5.46622 23.4704 9.37666 23.4704 14.2169C23.4704 19.0502 19.56 22.9675 14.7198 22.9675Z" fill="#F9983A"/>
</g>
</svg>
