<svg width="25" height="25" viewBox="0 0 25 25" fill="none" xmlns="http://www.w3.org/2000/svg">
<g id="&#240;&#159;&#166;&#134; icon &#34;University&#34;">
<path id="Vector" d="M25 5.83327V6.6666C25 6.77711 24.9561 6.88309 24.878 6.96123C24.7998 7.03937 24.6938 7.08327 24.5833 7.08327H23.3333V7.70827C23.3333 8.05342 23.0535 8.33327 22.7083 8.33327H2.29167C1.94651 8.33327 1.66667 8.05342 1.66667 7.70827V7.08327H0.416667C0.30616 7.08327 0.200179 7.03937 0.122039 6.96123C0.0438987 6.88309 0 6.77711 0 6.6666V5.83327C5.95908e-07 5.75083 0.024452 5.67025 0.0702605 5.60172C0.116069 5.53319 0.181176 5.47979 0.257344 5.44827L12.3407 0.864933C12.4427 0.822692 12.5573 0.822692 12.6593 0.864933L24.7427 5.44827C24.8188 5.47979 24.8839 5.53319 24.9297 5.60172C24.9755 5.67025 25 5.75083 25 5.83327ZM23.75 21.6666H1.25C0.559635 21.6666 0 22.2262 0 22.9166V23.7499C0 23.8604 0.0438987 23.9664 0.122039 24.0446C0.200179 24.1227 0.30616 24.1666 0.416667 24.1666H24.5833C24.6938 24.1666 24.7998 24.1227 24.878 24.0446C24.9561 23.9664 25 23.8604 25 23.7499V22.9166C25 22.2262 24.4404 21.6666 23.75 21.6666ZM4.16667 9.1666V19.1666H2.29167C1.94651 19.1666 1.66667 19.4464 1.66667 19.7916V20.8333H23.3333V19.7916C23.3333 19.4464 23.0535 19.1666 22.7083 19.1666H20.8333V9.1666H17.5V19.1666H14.1667V9.1666H10.8333V19.1666H7.5V9.1666H4.16667Z" fill="#0D69C5"/>
</g>
</svg>
